<svg width="40" height="40" viewBox="0 0 40 40" fill="none" xmlns="http://www.w3.org/2000/svg">
<g clip-path="url(#clip0_80052_19072)">
<path d="M0.800049 9.59998L4.00005 27.2L14.8 29.2L12.8 5.59998L0.800049 9.59998Z" fill="#EB5757"/>
<path d="M27 13L18.5 29.5L26.5 31L37 14.5L27 13Z" fill="#27AE60"/>
<path d="M27 13L33.5 32L40 24L37 14.4999L27 13Z" fill="#9B51E0"/>
<path d="M31.2411 24V17.95H32.3631V18.764H32.4181C32.4548 18.4853 32.5648 18.2617 32.7481 18.093C32.9314 17.9243 33.1588 17.84 33.4301 17.84C33.6794 17.84 33.8958 17.9243 34.0791 18.093C34.2624 18.2617 34.3871 18.4853 34.4531 18.764H34.4861C34.5301 18.4853 34.6438 18.2617 34.8271 18.093C35.0178 17.9243 35.2524 17.84 35.5311 17.84C35.8904 17.84 36.1838 17.9867 36.4111 18.28C36.6458 18.566 36.7631 18.9363 36.7631 19.391V24H35.5751V19.49C35.5751 19.0647 35.3991 18.852 35.0471 18.852C34.6951 18.852 34.5191 19.0647 34.5191 19.49V24H33.4851V19.49C33.4851 19.0647 33.3091 18.852 32.9571 18.852C32.6124 18.852 32.4401 19.0647 32.4401 19.49V24H31.2411Z" fill="white"/>
<path d="M16 10.5L18.5 29.5L26.5 31L24.5 15L16 10.5Z" fill="#FFC413"/>
<path d="M16 10.5L4 27.2L14.8 29.2L24.5 15L16 10.5Z" fill="#F2994A"/>
<path d="M12.4021 24.099C11.6248 24.099 11.0088 23.8863 10.5541 23.461C10.0995 23.0283 9.87212 22.449 9.87212 21.723V20.227C9.87212 19.501 10.0995 18.9253 10.5541 18.5C11.0088 18.0673 11.6248 17.851 12.4021 17.851C13.1795 17.851 13.7955 18.0673 14.2501 18.5C14.7048 18.9253 14.9321 19.4973 14.9321 20.216V21.723C14.9321 22.449 14.7048 23.0283 14.2501 23.461C13.7955 23.8863 13.1795 24.099 12.4021 24.099ZM12.4021 22.9C12.7688 22.9 13.0511 22.801 13.2491 22.603C13.4545 22.3977 13.5571 22.1043 13.5571 21.723V20.227C13.5571 19.8457 13.4545 19.556 13.2491 19.358C13.0511 19.1527 12.7688 19.05 12.4021 19.05C12.0355 19.05 11.7495 19.1527 11.5441 19.358C11.3461 19.556 11.2471 19.8457 11.2471 20.227V21.723C11.2471 22.1043 11.3461 22.3977 11.5441 22.603C11.7495 22.801 12.0355 22.9 12.4021 22.9Z" fill="white"/>
<path d="M17.3252 24V17.95H18.6672V19.105H18.7002C18.7589 18.709 18.9349 18.401 19.2282 18.181C19.5215 17.9537 19.8955 17.84 20.3502 17.84C20.9735 17.84 21.4722 18.0453 21.8462 18.456C22.2202 18.8593 22.4072 19.413 22.4072 20.117V20.612H20.9662V20.216C20.9662 19.842 20.8672 19.5523 20.6692 19.347C20.4785 19.1343 20.1999 19.028 19.8332 19.028C19.0779 19.028 18.7002 19.4497 18.7002 20.293V24H17.3252Z" fill="white"/>
<path d="M6.18117 24C5.57984 24 5.09584 23.8203 4.72917 23.461C4.36984 23.1017 4.19017 22.6287 4.19017 22.042V17.213H2.19917V15.97H5.56517V22.009C5.56517 22.2363 5.62751 22.4197 5.75217 22.559C5.88417 22.691 6.06017 22.757 6.28017 22.757H8.05117V24H6.18117Z" fill="white"/>
<path d="M26.8131 24.11C26.2998 24.11 25.8525 24.011 25.4711 23.813C25.0898 23.615 24.7928 23.34 24.5801 22.988C24.3748 22.6287 24.2721 22.2107 24.2721 21.734V20.216C24.2721 19.7393 24.3748 19.325 24.5801 18.973C24.7928 18.6137 25.0898 18.335 25.4711 18.137C25.8525 17.939 26.2998 17.84 26.8131 17.84C27.3191 17.84 27.7591 17.939 28.1331 18.137C28.5145 18.335 28.8078 18.6137 29.0131 18.973C29.2258 19.325 29.3321 19.7393 29.3321 20.216V21.305H25.6031V21.734C25.6031 22.592 26.0101 23.021 26.8241 23.021C27.4548 23.021 27.8251 22.812 27.9351 22.394H29.2881C29.1855 22.9147 28.9068 23.3327 28.4521 23.648C28.0048 23.956 27.4585 24.11 26.8131 24.11ZM25.6031 20.216V20.447L28.0011 20.436V20.205C28.0011 19.787 27.9021 19.468 27.7041 19.248C27.5061 19.0207 27.2091 18.907 26.8131 18.907C26.4098 18.907 26.1055 19.0207 25.9001 19.248C25.7021 19.4753 25.6031 19.798 25.6031 20.216Z" fill="white"/>
</g>
<defs>
<clipPath id="clip0_80052_19072">
<rect width="40" height="40" fill="white"/>
</clipPath>
</defs>
</svg>
