<svg width="40" height="40" viewBox="0 0 40 40" fill="none" xmlns="http://www.w3.org/2000/svg">
<path d="M0.800049 9.59998L4.00005 27.2L14.8 29.2L12.8 5.59998L0.800049 9.59998Z" fill="#EB5757"/>
<path d="M24 15.6L18.4 32.8L26.5 31L35.2 11.6L24 15.6Z" fill="#27AE60"/>
<path d="M24 15.6L35.2 32L39.6 22.8L35.2 11.6L24 15.6Z" fill="#9B51E0"/>
<path d="M31.3071 24V17.95H32.2971V18.72H32.3631C32.4071 18.456 32.5171 18.2433 32.6931 18.082C32.8764 17.9207 33.1001 17.84 33.3641 17.84C33.6134 17.84 33.8261 17.9207 34.0021 18.082C34.1854 18.236 34.3138 18.4487 34.3871 18.72H34.4311C34.4824 18.456 34.5998 18.2433 34.7831 18.082C34.9664 17.9207 35.1974 17.84 35.4761 17.84C35.8354 17.84 36.1288 17.9867 36.3561 18.28C36.5908 18.566 36.7081 18.9363 36.7081 19.391V24H35.6521V19.446C35.6521 18.9693 35.4541 18.731 35.0581 18.731C34.6621 18.731 34.4641 18.9657 34.4641 19.435V24H33.5511V19.446C33.5511 18.9693 33.3494 18.731 32.9461 18.731C32.5574 18.731 32.3631 18.9657 32.3631 19.435V24H31.3071Z" fill="white"/>
<path d="M9.59998 14L18.4 32.8L26.5 31L21.6 10L9.59998 14Z" fill="#F2C94C"/>
<path d="M9.6 14L4 27.2L14.8 29.2L21.6 10L9.6 14Z" fill="#F2994A"/>
<path d="M12.4021 24.099C11.6468 24.099 11.0491 23.89 10.6091 23.472C10.1765 23.0467 9.96012 22.4747 9.96012 21.756V20.194C9.96012 19.4753 10.1765 18.907 10.6091 18.489C11.0491 18.0637 11.6468 17.851 12.4021 17.851C13.1575 17.851 13.7551 18.0637 14.1951 18.489C14.6351 18.907 14.8551 19.4753 14.8551 20.194V21.756C14.8551 22.4747 14.6351 23.0467 14.1951 23.472C13.7551 23.89 13.1575 24.099 12.4021 24.099ZM12.4021 23.054C12.7981 23.054 13.1061 22.944 13.3261 22.724C13.5535 22.4967 13.6671 22.174 13.6671 21.756V20.194C13.6671 19.776 13.5535 19.457 13.3261 19.237C13.1061 19.0097 12.7981 18.896 12.4021 18.896C12.0061 18.896 11.6981 19.0097 11.4781 19.237C11.2581 19.457 11.1481 19.776 11.1481 20.194V21.756C11.1481 22.174 11.2581 22.4967 11.4781 22.724C11.6981 22.944 12.0061 23.054 12.4021 23.054Z" fill="white"/>
<path d="M17.4132 24V17.95H18.5792V19.105H18.6012C18.6599 18.709 18.8322 18.401 19.1182 18.181C19.4042 17.9537 19.7745 17.84 20.2292 17.84C20.8525 17.84 21.3512 18.0417 21.7252 18.445C22.1065 18.8483 22.2972 19.3947 22.2972 20.084V20.546H21.0762V20.183C21.0762 19.765 20.9662 19.4423 20.7462 19.215C20.5335 18.9877 20.2255 18.874 19.8222 18.874C19.0082 18.874 18.6012 19.325 18.6012 20.227V24H17.4132Z" fill="white"/>
<path d="M6.13717 24C5.56517 24 5.10684 23.835 4.76217 23.505C4.42484 23.1677 4.25617 22.7203 4.25617 22.163V17.048H2.22117V15.97H5.44417V22.141C5.44417 22.383 5.51017 22.5737 5.64217 22.713C5.77417 22.8523 5.95384 22.922 6.18117 22.922H8.00717V24H6.13717Z" fill="white"/>
<path d="M26.8021 24.11C26.3108 24.11 25.8818 24.0147 25.5151 23.824C25.1485 23.626 24.8625 23.351 24.6571 22.999C24.4591 22.647 24.3601 22.2363 24.3601 21.767V20.183C24.3601 19.7137 24.4591 19.303 24.6571 18.951C24.8625 18.599 25.1485 18.3277 25.5151 18.137C25.8818 17.939 26.3108 17.84 26.8021 17.84C27.3008 17.84 27.7335 17.939 28.1001 18.137C28.4668 18.3277 28.7491 18.599 28.9471 18.951C29.1525 19.303 29.2551 19.7137 29.2551 20.183V21.261H25.5041V21.767C25.5041 22.6837 25.9405 23.142 26.8131 23.142C27.5245 23.142 27.9351 22.9037 28.0451 22.427H29.2221C29.1341 22.9403 28.8701 23.351 28.4301 23.659C27.9901 23.9597 27.4475 24.11 26.8021 24.11ZM25.5041 20.183V20.458L28.1001 20.447V20.172C28.1001 19.7247 27.9901 19.3837 27.7701 19.149C27.5501 18.907 27.2275 18.786 26.8021 18.786C26.3768 18.786 26.0541 18.907 25.8341 19.149C25.6141 19.391 25.5041 19.7357 25.5041 20.183Z" fill="white"/>
</svg>
