<svg width="16" height="16" viewBox="0 0 16 16" fill="none" xmlns="http://www.w3.org/2000/svg">
<path d="M14 4.99372V12.3062C14 12.5312 13.91 12.7281 13.73 12.8968C13.55 13.0656 13.34 13.15 13.1 13.15H2.9C2.66 13.15 2.45 13.0656 2.27 12.8968C2.09 12.7281 2 12.5312 2 12.3062V4.99372C2 4.76872 2.09 4.42187 2.27 4.25312C2.45 4.08437 2.66 4 2.9 4H13.1C13.34 4 13.55 4.08437 13.73 4.25312C13.91 4.42187 14 4.76872 14 4.99372ZM3 6.52654H13V4.99372H3V6.52654ZM3 8.3406V12H13V10.3234V8.3406H3Z" fill="#AFB1B3"/>
</svg>
