<svg width="16" height="16" viewBox="0 0 16 16" fill="none" xmlns="http://www.w3.org/2000/svg">
<path fill-rule="evenodd" clip-rule="evenodd" d="M7.38025 5.93508C7.12191 6.08508 6.90858 6.29008 6.74358 6.54008C6.58525 6.78675 6.46858 7.06842 6.39858 7.37675C6.32858 7.68175 6.29358 7.99342 6.29358 8.30675C6.29358 8.97675 6.41525 9.45342 6.66191 9.76342C6.91525 10.0801 7.25691 10.2417 7.67525 10.2417C7.95025 10.2417 8.19191 10.1784 8.39525 10.0517C8.59525 9.93008 8.76191 9.75508 8.88858 9.53342C9.01025 9.32175 9.10525 9.06675 9.16858 8.77342C9.23191 8.49008 9.27358 8.16842 9.28858 7.82175L9.40358 5.83175L9.33358 5.81508C9.14191 5.77008 8.99691 5.74675 8.83358 5.72842C8.67025 5.71175 8.50691 5.70342 8.33691 5.70342C7.96358 5.70342 7.64358 5.78008 7.38025 5.93508ZM1.33691 8.00092C1.33691 1.33508 7.44578 1.33508 8.52691 1.33508C9.08517 1.33508 14.6669 1.4773 14.6669 7.26175C14.6669 11.3484 12.1252 11.3332 11.6169 11.3332C10.7889 11.2832 10.1906 10.9561 9.82191 10.3517C9.13775 11.0061 8.46886 11.3332 7.81525 11.3332C6.46617 11.3332 4.66691 11.2017 4.66691 8.00008C4.66691 5.20064 7.0933 4.66675 8.00025 4.66675C8.25525 4.66675 10.9086 4.75842 11.0402 4.79842L10.9069 8.31342C10.8263 9.43068 11.0979 10.0179 11.7219 10.0751C12.9268 10.0751 13.1002 7.63842 13.1002 7.24508C13.1002 2.8456 9.18025 2.57508 8.52691 2.57508C7.61858 2.57508 2.90598 2.7514 2.90598 8.00092C2.90598 8.97329 2.90598 13.4101 7.81525 13.4101C8.15025 13.4101 10.9069 13.0716 11.6036 12.7134V13.9634C11.0919 14.1717 9.82191 14.6667 7.83025 14.6667C6.59302 14.6667 1.33691 14.6667 1.33691 8.00092Z" fill="#6E6E6E"/>
</svg>
