<svg width="16" height="16" viewBox="0 0 16 16" fill="none" xmlns="http://www.w3.org/2000/svg">
<path fill-rule="evenodd" clip-rule="evenodd" d="M8 1C4.136 1 1 4.136 1 8C1 11.864 4.136 15 8 15C11.864 15 15 11.864 15 8C15 4.136 11.864 1 8 1ZM7.29999 13.5509C4.53499 13.208 2.39999 10.856 2.39999 8C2.39999 7.566 2.45599 7.153 2.54699 6.747L5.89999 10.1V10.8C5.89999 11.57 6.52999 12.2 7.29999 12.2V13.5509ZM12.13 11.773C11.948 11.206 11.43 10.8 10.8 10.8H10.1V8.7C10.1 8.315 9.785 8 9.4 8H5.2V6.6H6.6C6.985 6.6 7.3 6.285 7.3 5.9V4.5H8.7C9.47 4.5 10.1 3.87 10.1 3.1V2.813C12.151 3.646 13.6 5.655 13.6 8C13.6 9.456 13.04 10.779 12.13 11.773Z" fill="#AFB1B3"/>
</svg>
